<svg width="24" height="24" viewBox="0 0 24 24" fill="none" xmlns="http://www.w3.org/2000/svg">
<path d="M1.5 12C1.5 14.3447 1.62694 16.1607 1.9413 17.5752C2.25314 18.9783 2.73595 19.9244 3.40576 20.5942C4.07558 21.264 5.02166 21.7469 6.42481 22.0587C7.83932 22.3731 9.65526 22.5 12 22.5C14.3447 22.5 16.1607 22.3731 17.5752 22.0587C18.9783 21.7469 19.9244 21.264 20.5942 20.5942C21.264 19.9244 21.7469 18.9783 22.0587 17.5752C22.3731 16.1607 22.5 14.3447 22.5 12C22.5 9.65526 22.3731 7.83932 22.0587 6.42481C21.7469 5.02166 21.264 4.07558 20.5942 3.40576C19.9244 2.73595 18.9783 2.25314 17.5752 1.9413C16.1607 1.62694 14.3447 1.5 12 1.5C9.65526 1.5 7.83932 1.62694 6.42481 1.9413C5.02166 2.25314 4.07558 2.73595 3.40576 3.40576C2.73595 4.07558 2.25314 5.02166 1.9413 6.42481C1.62694 7.83932 1.5 9.65526 1.5 12Z" stroke="#393939" stroke-width="2" stroke-linecap="round" stroke-linejoin="round"/>
<path d="M14.875 9.125L12 12M12 12L9.125 14.875M12 12L14.875 14.875M12 12L9.125 9.125" stroke="#393939" stroke-width="2" stroke-linecap="round" stroke-linejoin="round"/>
</svg>
