<svg width="24" height="25" viewBox="0 0 24 25" fill="none" xmlns="http://www.w3.org/2000/svg">
<path fill-rule="evenodd" clip-rule="evenodd" d="M16.7071 10.2071C17.0976 9.81658 17.0976 9.18342 16.7071 8.79289C16.3166 8.40237 15.6834 8.40237 15.2929 8.79289L11 13.0858L9.20711 11.2929C8.81658 10.9024 8.18342 10.9024 7.79289 11.2929C7.40237 11.6834 7.40237 12.3166 7.79289 12.7071L10.2929 15.2071C10.6834 15.5976 11.3166 15.5976 11.7071 15.2071L16.7071 10.2071Z" fill="white"/>
<path d="M1 12.5C1 14.9477 1.13246 16.8463 1.46153 18.327C1.78807 19.7963 2.29478 20.7921 3.00136 21.4986C3.70794 22.2052 4.70365 22.7119 6.17298 23.0385C7.65366 23.3675 9.55232 23.5 12 23.5C14.4477 23.5 16.3463 23.3675 17.827 23.0385C19.2963 22.7119 20.2921 22.2052 20.9986 21.4986C21.7052 20.7921 22.2119 19.7963 22.5385 18.327C22.8675 16.8463 23 14.9477 23 12.5C23 10.0523 22.8675 8.15366 22.5385 6.67298C22.2119 5.20365 21.7052 4.20794 20.9986 3.50136C20.2921 2.79478 19.2963 2.28807 17.827 1.96153C16.3463 1.63246 14.4477 1.5 12 1.5C9.55232 1.5 7.65366 1.63246 6.17298 1.96153C4.70365 2.28807 3.70794 2.79478 3.00136 3.50136C2.29478 4.20794 1.78807 5.20365 1.46153 6.67298C1.13246 8.15366 1 10.0523 1 12.5Z" stroke="white" stroke-width="2" stroke-linecap="round" stroke-linejoin="round"/>
</svg>
