<svg width="154" height="81" viewBox="0 0 154 81" fill="none" xmlns="http://www.w3.org/2000/svg">
<g clip-path="url(#clip0)">
<path d="M86.9542 53.2475C88.6518 54.944 89.7091 57.1772 89.9458 59.5665C90.1825 61.9557 89.5841 64.3532 88.2525 66.3504C86.9209 68.3476 84.9384 69.8209 82.643 70.5192C80.3476 71.2176 77.8812 71.0978 75.6641 70.1802C73.4471 69.2627 71.6165 67.6042 70.4844 65.4874C69.3523 63.3705 68.9887 60.9263 69.4555 58.5712C69.9224 56.2161 71.1908 54.0959 73.0446 52.5719C74.8984 51.0478 77.223 50.2142 79.6221 50.2131C80.9859 50.1922 82.3395 50.4501 83.6003 50.9709C84.861 51.4918 86.0022 52.2646 86.9542 53.2421V53.2475ZM83.388 56.811C82.6441 56.0688 81.6972 55.5638 80.6668 55.3598C79.6363 55.1558 78.5686 55.262 77.5984 55.665C76.6282 56.068 75.7992 56.7496 75.2159 57.6239C74.6326 58.4982 74.3214 59.5258 74.3214 60.577C74.3214 61.6282 74.6326 62.6558 75.2159 63.5301C75.7992 64.4043 76.6282 65.086 77.5984 65.489C78.5686 65.892 79.6363 65.9982 80.6668 65.7942C81.6972 65.5902 82.6441 65.0852 83.388 64.343C84.3839 63.3431 84.9432 61.9888 84.9432 60.577C84.9432 59.1652 84.3839 57.8109 83.388 56.811Z" fill="#231F20"/>
<path d="M107.672 56.8168C106.503 55.6325 106.503 54.4429 107.672 53.2478C108.841 52.0528 110.029 52.0528 111.238 53.2478C112.685 54.6972 113.67 56.5434 114.069 58.5531C114.468 60.5627 114.262 62.6456 113.478 64.5383C112.694 66.4311 111.367 68.0488 109.665 69.1869C107.963 70.3251 105.961 70.9325 103.914 70.9325C101.867 70.9325 99.8652 70.3251 98.1628 69.1869C96.4604 68.0488 95.1333 66.4311 94.3495 64.5383C93.5656 62.6456 93.3601 60.5627 93.7589 58.5531C94.1577 56.5434 95.1429 54.6972 96.5899 53.2478C97.7841 52.0636 98.971 52.0636 100.151 53.2478C101.331 54.4321 101.331 55.6217 100.151 56.8168C99.1703 57.8248 98.6217 59.176 98.6217 60.5828C98.6217 61.9895 99.1703 63.3407 100.151 64.3488C101.149 65.3451 102.501 65.9047 103.911 65.9047C105.321 65.9047 106.673 65.3451 107.672 64.3488C108.668 63.3489 109.227 61.9946 109.227 60.5828C109.227 59.1709 108.668 57.8167 107.672 56.8168Z" fill="#231F20"/>
<path d="M134.702 68.0307C133.511 69.2258 132.322 69.2258 131.135 68.0307C129.948 66.8357 129.948 65.6514 131.135 64.478C131.643 63.991 132.043 63.4033 132.311 62.7524C132.579 62.1016 132.707 61.402 132.689 60.6985C132.686 59.6479 132.372 58.6217 131.788 57.7486C131.205 56.8756 130.376 56.1945 129.407 55.7908C128.438 55.3871 127.371 55.2789 126.34 55.4796C125.31 55.6803 124.362 56.181 123.614 56.919C123.119 57.4147 122.728 58.0044 122.464 58.6534C122.2 59.3025 122.069 59.9978 122.077 60.6985C122.061 61.4003 122.189 62.0979 122.453 62.748C122.718 63.3982 123.113 63.987 123.614 64.478C124.798 65.6622 124.798 66.8465 123.614 68.0307C122.431 69.215 121.244 69.215 120.054 68.0307C118.605 66.581 117.618 64.7339 117.218 62.7229C116.818 60.7119 117.023 58.6274 117.807 56.733C118.591 54.8386 119.919 53.2194 121.622 52.0803C123.326 50.9411 125.329 50.333 127.378 50.333C129.426 50.333 131.429 50.9411 133.133 52.0803C134.836 53.2194 136.164 54.8386 136.948 56.733C137.732 58.6274 137.937 60.7119 137.537 62.7229C137.137 64.7339 136.15 66.581 134.702 68.0307Z" fill="#231F20"/>
<path d="M30.2832 30.9868C30.2832 33.8484 29.2743 35.9055 27.2565 37.9249C26.0659 39.1199 24.8772 39.1199 23.6903 37.9249C22.5033 36.7298 22.5033 35.5456 23.6903 34.3722C24.1979 33.8852 24.5984 33.2974 24.866 32.6466C25.1335 31.9958 25.2623 31.2962 25.2441 30.5927V20.4258H30.2994C30.2813 21.1279 30.4086 21.826 30.6733 22.4765C30.9379 23.1269 31.3341 23.7155 31.837 24.2053C32.8352 25.2017 34.1875 25.7612 35.5974 25.7612C37.0073 25.7612 38.3596 25.2017 39.3579 24.2053C39.8658 23.7185 40.2664 23.1308 40.534 22.48C40.8016 21.8291 40.9303 21.1294 40.9117 20.4258C40.9276 19.7226 40.7978 19.0237 40.5303 18.3732C40.2629 17.7227 39.8637 17.1347 39.3579 16.6463C38.6159 15.898 37.6678 15.3881 36.6348 15.1816C35.6018 14.9752 34.5308 15.0816 33.5585 15.4873C32.5862 15.8929 31.7568 16.5794 31.1763 17.4591C30.5958 18.3388 30.2905 19.3717 30.2994 20.4258H25.2441C25.2229 19.061 25.4804 17.7062 26.0009 16.4445C26.5213 15.1827 27.2937 14.0407 28.2708 13.0882C30.2147 11.1472 32.8487 10.0571 35.5947 10.0571C38.3408 10.0571 40.9747 11.1472 42.9187 13.0882C43.8964 14.0404 44.6697 15.1823 45.191 16.444C45.7124 17.7057 45.9709 19.0606 45.9508 20.4258C45.9493 23.1705 44.8592 25.8023 42.9199 27.7431C40.9806 29.6839 38.3508 30.7748 35.6082 30.7762C33.7351 30.7805 31.8982 30.2606 30.3047 29.2752L30.2832 30.9868Z" fill="#231F20"/>
<path d="M30.2832 30.9868C30.2832 33.8484 29.2743 35.9055 27.2565 37.9249C26.0659 39.1199 24.8772 39.1199 23.6903 37.9249C22.5033 36.7298 22.5033 35.5456 23.6903 34.3722C24.1979 33.8852 24.5984 33.2974 24.866 32.6466C25.1335 31.9958 25.2623 31.2962 25.2441 30.5927V20.4258H30.2994C30.2813 21.1279 30.4086 21.826 30.6733 22.4765C30.9379 23.1269 31.3341 23.7155 31.837 24.2053C32.8352 25.2017 34.1875 25.7612 35.5974 25.7612C37.0073 25.7612 38.3596 25.2017 39.3579 24.2053C39.8658 23.7185 40.2664 23.1308 40.534 22.48C40.8016 21.8291 40.9303 21.1294 40.9117 20.4258C40.9276 19.7226 40.7978 19.0237 40.5303 18.3732C40.2629 17.7227 39.8637 17.1347 39.3579 16.6463C38.6159 15.898 37.6678 15.3881 36.6348 15.1816C35.6018 14.9752 34.5308 15.0816 33.5585 15.4873C32.5862 15.8929 31.7568 16.5794 31.1763 17.4591C30.5958 18.3388 30.2905 19.3717 30.2994 20.4258H25.2441C25.2229 19.061 25.4804 17.7062 26.0009 16.4445C26.5213 15.1827 27.2937 14.0407 28.2708 13.0882C30.2147 11.1472 32.8487 10.0571 35.5947 10.0571C38.3408 10.0571 40.9747 11.1472 42.9187 13.0882C43.8964 14.0404 44.6697 15.1823 45.191 16.444C45.7124 17.7057 45.9709 19.0606 45.9508 20.4258C45.9493 23.1705 44.8592 25.8023 42.9199 27.7431C40.9806 29.6839 38.3508 30.7748 35.6082 30.7762C33.7351 30.7805 31.8982 30.2606 30.3047 29.2752L30.2832 30.9868Z" stroke="#231F20" stroke-width="0.22" stroke-miterlimit="22.93"/>
<path fill-rule="evenodd" clip-rule="evenodd" d="M20.9278 20.2799H15.8671C15.8828 19.5662 15.7504 18.8571 15.4783 18.1973C15.2062 17.5374 14.8004 16.9413 14.2863 16.4464C13.7931 15.9277 13.1985 15.5163 12.5395 15.2376C11.8804 14.9589 11.1711 14.819 10.4557 14.8266C9.73824 14.821 9.0271 14.9617 8.36573 15.2402C7.70436 15.5187 7.10662 15.9291 6.60899 16.4464C6.10156 16.9457 5.70075 17.5429 5.43088 18.2019C5.161 18.8609 5.02768 19.5678 5.03899 20.2799C5.03469 20.9901 5.17131 21.6942 5.44092 22.3512C5.71053 23.0082 6.10777 23.6051 6.60962 24.1073C7.11147 24.6096 7.70794 25.0071 8.36445 25.2769C9.02096 25.5467 9.72446 25.6835 10.4342 25.6792C11.1427 25.6792 11.8442 25.5395 12.4988 25.2682C13.1534 24.9968 13.7481 24.5991 14.2491 24.0978C14.7501 23.5964 15.1475 23.0012 15.4187 22.3461C15.6898 21.691 15.8293 20.9889 15.8293 20.2799H20.89V22.526C20.874 23.2278 21.0021 23.9254 21.2667 24.5755C21.5312 25.2257 21.9263 25.8145 22.4277 26.3055C23.611 27.4897 23.611 28.674 22.4277 29.8582C21.2443 31.0425 20.0574 31.0425 18.8668 29.8582C18.3348 29.3153 17.861 28.7181 17.4533 28.0764C15.5539 29.8529 13.0389 30.821 10.4396 30.7761C9.06372 30.7901 7.69949 30.523 6.43041 29.991C5.16133 29.459 4.0141 28.6734 3.05896 27.6823C2.06909 26.7243 1.28671 25.5728 0.760453 24.2994C0.234195 23.0259 -0.0246903 21.6577 -0.000108952 20.2799C-0.0224431 18.9024 0.237468 17.5348 0.763593 16.2617C1.28972 14.9886 2.0709 13.8368 3.05896 12.8775C4.01755 11.8875 5.16807 11.1039 6.43998 10.5747C7.7119 10.0455 9.07841 9.78186 10.4557 9.79988C11.8334 9.77995 13.2004 10.0427 14.4726 10.5721C15.7448 11.1014 16.8951 11.886 17.8525 12.8775C18.8422 13.8364 19.6256 14.9877 20.1544 16.2607C20.6833 17.5337 20.9464 18.9014 20.9278 20.2799Z" fill="#231F20"/>
<path d="M53.2233 30.9868C53.2233 33.8484 52.2144 35.9055 50.1966 37.9249C49.0061 39.1199 47.8174 39.1199 46.6304 37.9249C45.4435 36.7298 45.4435 35.5456 46.6304 34.3722C47.1381 33.8852 47.5386 33.2974 47.8061 32.6466C48.0737 31.9958 48.2025 31.2962 48.1842 30.5927V20.4258H53.2395C53.2215 21.1279 53.3488 21.826 53.6134 22.4765C53.878 23.1269 54.2743 23.7155 54.7772 24.2053C55.7754 25.2017 57.1277 25.7612 58.5376 25.7612C59.9475 25.7612 61.2998 25.2017 62.298 24.2053C62.806 23.7185 63.2066 23.1308 63.4742 22.48C63.7418 21.8291 63.8704 21.1294 63.8518 20.4258C63.8678 19.7226 63.7379 19.0237 63.4705 18.3732C63.2031 17.7227 62.8038 17.1347 62.298 16.6463C61.556 15.898 60.608 15.3881 59.575 15.1816C58.542 14.9752 57.4709 15.0816 56.4987 15.4873C55.5264 15.8929 54.697 16.5794 54.1165 17.4591C53.536 18.3388 53.2306 19.3717 53.2395 20.4258H48.1842C48.1631 19.061 48.4206 17.7062 48.9411 16.4445C49.4615 15.1827 50.2339 14.0407 51.2109 13.0882C53.1549 11.1472 55.7888 10.0571 58.5349 10.0571C61.2809 10.0571 63.9149 11.1472 65.8588 13.0882C66.8366 14.0404 67.6098 15.1823 68.1312 16.444C68.6525 17.7057 68.9111 19.0606 68.8909 20.4258C68.8939 22.2564 68.4103 24.0548 67.49 25.6367C66.5696 27.2187 65.2455 28.5272 63.6533 29.4283C62.0611 30.3294 60.2581 30.7906 58.4291 30.7647C56.6001 30.7387 54.8109 30.2265 53.2449 29.2806L53.2233 30.9868Z" fill="#231F20"/>
<path d="M53.2233 30.9868C53.2233 33.8484 52.2144 35.9055 50.1966 37.9249C49.0061 39.1199 47.8174 39.1199 46.6304 37.9249C45.4435 36.7298 45.4435 35.5456 46.6304 34.3722C47.1381 33.8852 47.5386 33.2974 47.8061 32.6466C48.0737 31.9958 48.2025 31.2962 48.1842 30.5927V20.4258H53.2395C53.2215 21.1279 53.3488 21.826 53.6134 22.4765C53.878 23.1269 54.2743 23.7155 54.7772 24.2053C55.7754 25.2017 57.1277 25.7612 58.5376 25.7612C59.9475 25.7612 61.2998 25.2017 62.298 24.2053C62.806 23.7185 63.2066 23.1308 63.4742 22.48C63.7418 21.8291 63.8704 21.1294 63.8518 20.4258C63.8678 19.7226 63.7379 19.0237 63.4705 18.3732C63.2031 17.7227 62.8038 17.1347 62.298 16.6463C61.556 15.898 60.608 15.3881 59.575 15.1816C58.542 14.9752 57.4709 15.0816 56.4987 15.4873C55.5264 15.8929 54.697 16.5794 54.1165 17.4591C53.536 18.3388 53.2306 19.3717 53.2395 20.4258H48.1842C48.1631 19.061 48.4206 17.7062 48.9411 16.4445C49.4615 15.1827 50.2339 14.0407 51.2109 13.0882C53.1549 11.1472 55.7888 10.0571 58.5349 10.0571C61.2809 10.0571 63.9149 11.1472 65.8588 13.0882C66.8366 14.0404 67.6098 15.1823 68.1312 16.444C68.6525 17.7057 68.9111 19.0606 68.8909 20.4258C68.8939 22.2564 68.4103 24.0548 67.49 25.6367C66.5696 27.2187 65.2455 28.5272 63.6533 29.4283C62.0611 30.3294 60.2581 30.7906 58.4291 30.7647C56.6001 30.7387 54.8109 30.2265 53.2449 29.2806L53.2233 30.9868Z" stroke="#231F20" stroke-width="0.22" stroke-miterlimit="22.93"/>
<path d="M65.9021 53.075C67.0495 54.2701 67.0495 55.4597 65.9021 56.6439C64.6972 57.8498 63.5085 57.8498 62.3359 56.6439C61.5784 55.8963 60.617 55.3895 59.5725 55.1873C58.528 54.985 57.4471 55.0963 56.4656 55.5072C55.4841 55.918 54.6459 56.6101 54.0564 57.4963C53.4669 58.3826 53.1524 59.4235 53.1524 60.4882C53.1524 61.5529 53.4669 62.5938 54.0564 63.4801C54.6459 64.3664 55.4841 65.0585 56.4656 65.4693C57.4471 65.8802 58.528 65.9914 59.5725 65.7892C60.617 65.5869 61.5784 65.0801 62.3359 64.3325C63.5049 63.1375 64.6936 63.1375 65.9021 64.3325C67.0495 65.5132 67.0495 66.6956 65.9021 67.8798C63.9332 69.8082 61.2836 70.8814 58.5288 70.8665C55.7739 70.8516 53.1361 69.7498 51.1881 67.8003C49.24 65.8508 48.1391 63.211 48.1242 60.454C48.1093 57.697 49.1817 55.0455 51.1086 53.075C52.0778 52.0991 53.2303 51.3246 54.4997 50.7962C55.7691 50.2677 57.1305 49.9956 58.5053 49.9956C59.8802 49.9956 61.2416 50.2677 62.511 50.7962C63.7804 51.3246 64.9329 52.0991 65.9021 53.075Z" fill="#231F20"/>
<path d="M79.3091 80.9893C80.9924 80.9893 81.834 80.1488 81.834 78.4678C81.834 76.7868 80.9924 75.9445 79.3091 75.9409H58.4891C56.4774 75.9431 54.4851 75.5485 52.6259 74.7797C50.7667 74.0109 49.0771 72.8831 47.6536 71.4605C46.2302 70.038 45.1008 68.3487 44.33 66.4892C43.5592 64.6297 43.1621 62.6364 43.1614 60.6232C43.1591 57.8003 43.9364 55.0317 45.4073 52.6231C46.8783 50.2144 48.9857 48.2594 51.4969 46.9738L68.0979 38.335C70.6815 36.956 72.9376 35.0358 74.7124 32.7052C76.4873 30.3745 77.7391 27.6883 78.3826 24.8297C79.026 21.971 79.046 19.0071 78.4411 16.14C77.8362 13.2729 76.6207 10.5701 74.8775 8.21571C73.1342 5.86134 70.9042 3.91083 68.3394 2.49713C65.7746 1.08344 62.9354 0.239802 60.0153 0.0237436C57.0952 -0.192315 54.1629 0.224282 51.4183 1.24513C48.6736 2.26598 46.1812 3.86709 44.1109 5.93929C42.9618 7.12173 42.9348 8.34737 44.084 9.52981C45.2331 10.7123 46.5118 10.7177 47.6825 9.52981C49.2458 7.9691 51.1279 6.76523 53.1997 6.00077C55.2715 5.23631 57.484 4.92935 59.6855 5.10095C61.8869 5.27255 64.0253 5.91864 65.9538 6.99492C67.8824 8.07119 69.5555 9.55218 70.8584 11.3363C72.1614 13.1204 73.0633 15.1655 73.5023 17.3312C73.9413 19.4969 73.9071 21.732 73.402 23.8832C72.8968 26.0344 71.9327 28.0509 70.5758 29.7942C69.2188 31.5375 67.5012 32.9665 65.5406 33.9832L48.8533 42.6544C44.8579 44.8039 41.6939 48.2267 39.8629 52.38C38.032 56.5334 37.6389 61.1796 38.7461 65.5819C39.8533 69.9842 42.3973 73.8906 45.9748 76.6816C49.5522 79.4727 53.9583 80.9887 58.4945 80.9893H79.3091Z" fill="#F58320"/>
<path d="M151.475 70.7307C150.116 70.7314 148.77 70.464 147.515 69.9438C146.259 69.4235 145.119 68.6607 144.158 67.6988C143.198 66.737 142.436 65.595 141.917 64.3383C141.397 63.0816 141.131 61.7348 141.132 60.3749V54.4357C139.449 54.4357 138.607 53.597 138.607 51.9196C138.607 50.2422 139.449 49.4 141.132 49.3928C141.151 48.6892 141.022 47.9896 140.754 47.3388C140.487 46.688 140.086 46.1003 139.579 45.6133C138.388 44.429 138.388 43.2448 139.579 42.0605C140.769 40.8763 141.958 40.8763 143.145 42.0605C144.554 43.3579 145.538 45.0521 145.966 46.9199C146.107 47.6038 146.175 48.3005 146.171 48.9986V49.382C147.855 49.382 148.696 50.2242 148.696 51.9088C148.696 53.5934 147.855 54.4321 146.171 54.4249V60.3641C146.156 61.0658 146.284 61.7633 146.549 62.4135C146.813 63.0636 147.208 63.6524 147.709 64.1436C148.201 64.6449 148.789 65.0412 149.438 65.3084C150.087 65.5757 150.784 65.7084 151.486 65.6986C153.169 65.6986 154.011 66.5409 154.011 68.2254C154.011 69.91 153.165 70.7451 151.475 70.7307Z" fill="#231F20"/>
</g>
<defs>
<clipPath id="clip0">
<rect width="154" height="81" fill="white"/>
</clipPath>
</defs>
</svg>
