<svg width="24" height="24" viewBox="0 0 24 24" fill="none" xmlns="http://www.w3.org/2000/svg">
<path fill-rule="evenodd" clip-rule="evenodd" d="M2.5 12C2.5 15.5246 3.38051 17.8008 4.7911 19.2102C6.20202 20.6199 8.4812 21.5 12.01 21.5C15.5388 21.5 17.818 20.6199 19.2289 19.2102C20.5014 17.9388 21.3425 15.9621 21.495 13C21.5234 12.4484 21.9678 12 22.52 12C23.0723 12 23.5229 12.4506 23.4972 13.0023C23.1704 20.0008 19.3414 23.5 12.01 23.5C4.33667 23.5 0.5 19.6667 0.5 12C0.5 4.33333 4.33667 0.5 12.01 0.5C17.7507 0.5 21.344 2.64552 22.7899 6.93657C22.9988 7.55668 22.5105 8.16667 21.8561 8.16667C21.3943 8.16667 20.996 7.8543 20.8404 7.41953C20.4473 6.32102 19.8977 5.45801 19.2289 4.78983C17.818 3.38014 15.5388 2.5 12.01 2.5C8.4812 2.5 6.20202 3.38014 4.7911 4.78983C3.38051 6.1992 2.5 8.4754 2.5 12Z" fill="#393939"/>
<path d="M22.5609 1.45825V7.20825H16.8059" stroke="#393939" stroke-width="2" stroke-linecap="round" stroke-linejoin="round"/>
</svg>
