<svg width="26" height="25" viewBox="0 0 26 25" fill="none" xmlns="http://www.w3.org/2000/svg">
<path d="M1 19.5C1 20.4693 1.11783 21.118 1.34327 21.5791C1.5502 22.0023 1.88679 22.3473 2.51687 22.6337C3.17962 22.9349 4.14546 23.1599 5.5602 23.3028C6.96536 23.4448 8.74527 23.5 11 23.5C13.2547 23.5 15.0346 23.4448 16.4398 23.3028C17.8545 23.1599 18.8204 22.9349 19.4831 22.6337C20.1132 22.3473 20.4498 22.0023 20.6567 21.5791C20.8822 21.118 21 20.4693 21 19.5C21 18.5307 20.8822 17.882 20.6567 17.4209C20.4498 16.9977 20.1132 16.6527 19.4831 16.3663C18.8204 16.0651 17.8545 15.8401 16.4398 15.6972C15.0346 15.5552 13.2547 15.5 11 15.5C8.74527 15.5 6.96536 15.5552 5.5602 15.6972C4.14546 15.8401 3.17962 16.0651 2.51687 16.3663C1.88679 16.6527 1.5502 16.9977 1.34327 17.4209C1.11783 17.882 1 18.5307 1 19.5Z" stroke="white" stroke-width="2" stroke-linecap="round" stroke-linejoin="round"/>
<circle r="5" transform="matrix(-1 0 0 1 11 6.5)" stroke="white" stroke-width="2"/>
<path d="M22 7.5V10.5M22 13.5V10.5M22 10.5H25H19" stroke="white" stroke-width="2" stroke-linecap="round" stroke-linejoin="round"/>
</svg>
